<?xml version="1.0" encoding="UTF-8" ?>
<!DOCTYPE svg PUBLIC "-//W3C//DTD SVG 1.1//EN" "http://www.w3.org/Graphics/SVG/1.1/DTD/svg11.dtd">
<svg width="512pt" height="512pt" viewBox="0 0 512 512" version="1.1" xmlns="http://www.w3.org/2000/svg">
<g id="#e2e2e2ff">
<path fill="#e2e2e2" opacity="1.00" d=" M 257.76 73.36 C 275.87 109.82 293.76 146.38 311.90 182.82 C 347.99 187.93 384.04 193.28 420.12 198.48 C 423.73 199.08 427.41 199.33 430.97 200.28 C 430.60 201.64 429.96 202.91 428.88 203.84 C 400.98 231.03 373.11 258.24 345.19 285.41 C 352.04 325.50 358.95 365.58 365.80 405.68 C 329.80 386.77 293.79 367.86 257.80 348.94 C 221.80 367.83 185.82 386.77 149.82 405.67 C 156.71 365.61 163.55 325.54 170.49 285.49 C 141.40 257.04 112.21 228.70 83.10 200.27 C 123.34 194.46 163.56 188.58 203.80 182.76 C 221.80 146.30 239.79 109.84 257.76 73.36 M 257.58 102.98 C 244.09 130.62 230.34 158.14 216.83 185.77 C 215.11 189.48 212.57 193.19 208.53 194.59 C 202.49 196.23 196.23 196.77 190.06 197.75 C 163.67 201.54 137.29 205.50 110.88 209.19 C 122.61 220.45 133.92 232.14 145.90 243.14 C 156.11 253.25 166.31 263.38 176.64 273.37 C 180.59 276.75 183.61 281.57 183.21 286.94 C 177.90 318.64 172.08 350.27 167.08 382.01 C 194.94 367.20 222.96 352.65 250.85 337.89 C 253.05 336.93 255.40 336.22 257.81 336.13 C 263.87 336.70 268.93 340.28 274.23 342.91 C 299.08 355.98 323.95 369.03 348.81 382.10 C 343.27 350.40 337.90 318.66 332.45 286.95 C 332.00 281.42 335.15 276.54 339.14 273.03 C 361.30 251.99 382.74 230.20 404.95 209.23 C 377.45 205.36 349.99 201.26 322.50 197.31 C 317.34 196.50 312.09 196.05 307.07 194.53 C 303.55 193.16 300.94 190.17 299.35 186.82 C 286.44 160.65 273.51 134.49 260.55 108.34 C 259.61 106.53 259.01 104.49 257.58 102.98 Z" />
</g>
<g id="#ffff47ff">
<path fill="#ffff47" opacity="1.00" d=" M 257.58 102.98 C 259.01 104.49 259.61 106.53 260.55 108.34 C 273.51 134.49 286.44 160.65 299.35 186.82 C 300.94 190.17 303.55 193.16 307.07 194.53 C 312.09 196.05 317.34 196.50 322.50 197.31 C 349.99 201.26 377.45 205.36 404.95 209.23 C 382.74 230.20 361.30 251.99 339.14 273.03 C 335.15 276.54 332.00 281.42 332.45 286.95 C 337.90 318.66 343.27 350.40 348.81 382.10 C 323.95 369.03 299.08 355.98 274.23 342.91 C 268.93 340.28 263.87 336.70 257.81 336.13 C 255.40 336.22 253.05 336.93 250.85 337.89 C 222.96 352.65 194.94 367.20 167.08 382.01 C 172.08 350.27 177.90 318.64 183.21 286.94 C 183.61 281.57 180.59 276.75 176.64 273.37 C 166.31 263.38 156.11 253.25 145.90 243.14 C 133.92 232.14 122.61 220.45 110.88 209.19 C 137.29 205.50 163.67 201.54 190.06 197.75 C 196.23 196.77 202.49 196.23 208.53 194.59 C 212.57 193.19 215.11 189.48 216.83 185.77 C 230.34 158.14 244.09 130.62 257.58 102.98 Z" />
</g>
</svg>
